#N canvas 2 44 1276 736 10;
#X text 293 335 Keys;
#X text 449 337 Pads, f 5;
#X obj 29 18 loadbang;
#N canvas 2 54 1916 999 pads_in 0;
#X obj 56 14 inlet, f 7;
#X obj 57 168 pack f f f, f 113;
#X obj 57 202 outlet, f 23;
#X obj 56 126 array get LK_X_axis 0 1;
#X obj 390 129 array get LK_Y_axis 0 1;
#X obj 56 46 unpack f f, f 113;
#X obj 56 87 t f f, f 56;
#X obj 731 95 / 127;
#X connect 0 0 5 0;
#X connect 1 0 2 0;
#X connect 3 0 1 0;
#X connect 4 0 1 1;
#X connect 5 0 6 0;
#X connect 5 1 7 0;
#X connect 6 0 3 0;
#X connect 6 1 4 0;
#X connect 7 0 1 2;
#X restore 411 368 pd pads_in;
#N canvas 2 54 1916 999 fdbk 0;
#X obj 42 104 route 0 1 2 3, f 101;
#X msg 42 69 \$3 \$2 \$1;
#X obj 42 132 list prepend 0;
#X obj 218 131 list prepend 127;
#X obj 392 131 list prepend 52;
#X obj 569 128 list prepend 3;
#X msg 42 174 \$2 \$3 \$1;
#X text 690 133 colours;
#X obj 41 213 route 0 1, f 71;
#X obj 288 246 unpack f f, f 22;
#X obj 41 246 unpack f f, f 22;
#X obj 41 279 array get LK_LED 0 1;
#X obj 288 306 array get LK_LED 0 1;
#X obj 288 340 pack f f, f 22;
#X obj 39 410 outlet;
#X obj 41 313 pack f f, f 22;
#X obj 42 9 inlet;
#X obj 288 276 + 9;
#X obj 42 31 route pads;
#X connect 0 0 2 0;
#X connect 0 1 3 0;
#X connect 0 2 4 0;
#X connect 0 3 5 0;
#X connect 1 0 0 0;
#X connect 2 0 6 0;
#X connect 3 0 6 0;
#X connect 4 0 6 0;
#X connect 5 0 6 0;
#X connect 6 0 8 0;
#X connect 8 0 10 0;
#X connect 8 1 9 0;
#X connect 9 0 17 0;
#X connect 9 1 13 1;
#X connect 10 0 11 0;
#X connect 10 1 15 1;
#X connect 11 0 15 0;
#X connect 12 0 13 0;
#X connect 13 0 14 0;
#X connect 15 0 14 0;
#X connect 16 0 18 0;
#X connect 17 0 12 0;
#X connect 18 0 1 0;
#X restore 35 205 pd fdbk;
#X obj 35 161 inlet, f 6;
#X obj 411 391 outlet;
#X obj 264 394 outlet;
#X obj 265 369 list append 1;
#X msg 256 74 read ./hardware/LK_Y_axis.txt;
#X msg 29 75 read ./hardware/LK_X_axis.txt;
#X msg 482 73 read ./hardware/LK_LED.txt;
#X obj 29 106 array define LK_X_axis 121;
#X obj 256 104 array define LK_Y_axis 121;
#X obj 482 103 array define LK_LED 18;
#X text 622 161 MIDI Ctrl Input;
#X obj 264 239 notein, f 10;
#X obj 339 206 int \$1;
#X obj 339 231 - 1;
#X obj 339 260 * 16;
#X obj 264 264 pack f f f;
#X msg 265 285 \$3 \$1 \$2;
#X obj 265 312 route 1;
#X obj 339 283 + 1;
#X obj 338 184 loadbang;
#X obj 663 233 - 1;
#X obj 663 262 * 16;
#X obj 588 266 pack f f f;
#X msg 589 287 \$3 \$1 \$2;
#X obj 589 314 route 1;
#X obj 663 285 + 1;
#X obj 662 186 loadbang;
#X obj 588 242 ctlin, f 10;
#X obj 409 241 notein, f 10;
#X obj 484 233 - 1;
#X obj 484 262 * 16;
#X obj 409 266 pack f f f;
#X msg 410 287 \$3 \$1 \$2;
#X obj 410 314 route 1;
#X obj 484 285 + 1;
#X obj 483 186 loadbang;
#X obj 484 208 int \$2;
#X text 409 164 MIDI Pads Note Input;
#X text 249 163 MIDI Keys Note Input;
#X obj 663 208 int \$2;
#X obj 885 93 - 1;
#X obj 885 122 * 16;
#X obj 885 145 + 1;
#X obj 885 68 int \$2;
#X obj 29 46 t b b b b b, f 132;
#X obj 900 8 r MIDI-PORTS-CONNECTED-BANG;
#X obj 885 214 noteout;
#X obj 884 169 list prepend 12 127;
#X obj 884 192 list trim;
#X obj 110 208 - 1;
#X obj 110 237 * 16;
#X obj 110 260 + 1;
#X obj 109 161 loadbang;
#X obj 110 183 int \$2;
#X obj 35 360 noteout;
#X obj 35 290 list append;
#X obj 35 312 list trim;
#N canvas 2 50 1276 736 ctrl_in 0;
#X obj 64 44 inlet;
#X obj 64 187 outlet;
#X obj 64 104 - 21;
#X obj 64 70 swap, f 12;
#X obj 145 103 / 127;
#X obj 64 139 pack, f 12;
#X connect 0 0 3 0;
#X connect 2 0 5 0;
#X connect 3 0 2 0;
#X connect 3 1 4 0;
#X connect 4 0 5 1;
#X connect 5 0 1 0;
#X restore 586 362 pd ctrl_in;
#X obj 586 393 outlet;
#X obj 825 10 inlet;
#X connect 2 0 49 0;
#X connect 3 0 6 0;
#X connect 4 0 60 0;
#X connect 5 0 4 0;
#X connect 8 0 7 0;
#X connect 9 0 13 0;
#X connect 10 0 12 0;
#X connect 11 0 14 0;
#X connect 16 0 20 0;
#X connect 16 1 20 1;
#X connect 16 2 20 2;
#X connect 17 0 18 0;
#X connect 18 0 19 0;
#X connect 19 0 23 0;
#X connect 20 0 21 0;
#X connect 21 0 22 0;
#X connect 22 0 8 0;
#X connect 23 0 22 1;
#X connect 24 0 17 0;
#X connect 25 0 26 0;
#X connect 26 0 30 0;
#X connect 27 0 28 0;
#X connect 28 0 29 0;
#X connect 29 0 62 0;
#X connect 30 0 29 1;
#X connect 31 0 44 0;
#X connect 32 0 27 0;
#X connect 32 1 27 1;
#X connect 32 2 27 2;
#X connect 33 0 36 0;
#X connect 33 1 36 1;
#X connect 33 2 36 2;
#X connect 34 0 35 0;
#X connect 35 0 39 0;
#X connect 36 0 37 0;
#X connect 37 0 38 0;
#X connect 38 0 3 0;
#X connect 39 0 38 1;
#X connect 40 0 41 0;
#X connect 41 0 34 0;
#X connect 44 0 25 0;
#X connect 45 0 46 0;
#X connect 46 0 47 0;
#X connect 47 0 52 0;
#X connect 48 0 45 0;
#X connect 49 0 10 0;
#X connect 49 1 9 0;
#X connect 49 2 11 0;
#X connect 49 4 48 0;
#X connect 50 0 48 0;
#X connect 52 0 53 0;
#X connect 53 0 51 0;
#X connect 54 0 55 0;
#X connect 55 0 56 0;
#X connect 56 0 60 1;
#X connect 57 0 58 0;
#X connect 58 0 54 0;
#X connect 60 0 61 0;
#X connect 61 0 59 0;
#X connect 62 0 63 0;
#X connect 64 0 48 0;
