#N canvas 0 54 1920 1001 10;
#X obj 393 45 inlet;
#N canvas 0 54 1920 1001 LED_feedback 0;
#X obj 42 4 inlet;
#X obj 44 146 outlet;
#X obj 42 60 route grid side top, f 91;
#N canvas 0 54 1920 1001 grid_to_MIDI 0;
#X obj 42 39 inlet;
#X obj 42 104 route 0 1 2 3, f 101;
#X msg 42 69 \$3 \$2 \$1;
#X obj 42 132 list prepend 0;
#X obj 192 131 list prepend 127;
#X obj 343 131 list prepend 52;
#X obj 494 132 list prepend 3;
#X msg 42 174 \$2 \$3 \$1;
#X obj 42 320 outlet;
#X obj 42 234 * 16;
#X obj 42 205 unpack f f f;
#X obj 42 263 +, f 8;
#X obj 42 289 pack f f, f 12;
#X connect 0 0 2 0;
#X connect 1 0 3 0;
#X connect 1 1 4 0;
#X connect 1 2 5 0;
#X connect 1 3 6 0;
#X connect 2 0 1 0;
#X connect 3 0 7 0;
#X connect 4 0 7 0;
#X connect 5 0 7 0;
#X connect 6 0 7 0;
#X connect 7 0 10 0;
#X connect 9 0 11 0;
#X connect 10 0 9 0;
#X connect 10 1 11 1;
#X connect 10 2 12 1;
#X connect 11 0 12 0;
#X connect 12 0 8 0;
#X restore 43 84 pd grid_to_MIDI;
#N canvas 0 54 1920 1001 side_to_MIDI 0;
#X obj 47 16 inlet;
#N canvas 0 54 1920 1001 set_col 0;
#X obj 94 32 inlet;
#X obj 95 209 outlet, f 17;
#X obj 94 84 sel 0 1 2 3, f 101;
#X obj 94 140 int 0;
#X obj 217 144 int 127;
#X obj 365 144 int 52;
#X obj 509 147 int 3;
#X connect 0 0 2 0;
#X connect 2 0 3 0;
#X connect 2 1 4 0;
#X connect 2 2 5 0;
#X connect 2 3 6 0;
#X connect 3 0 1 0;
#X connect 4 0 1 0;
#X connect 5 0 1 0;
#X connect 6 0 1 0;
#X restore 231 83 pd set_col;
#X obj 48 50 unpack f f, f 31;
#X obj 46 128 pack f f, f 31;
#X obj 45 169 outlet;
#X obj 48 81 expr $f1 * 16 + 8;
#X connect 0 0 2 0;
#X connect 1 0 3 1;
#X connect 2 0 5 0;
#X connect 2 1 1 0;
#X connect 3 0 4 0;
#X connect 5 0 3 0;
#X restore 220 93 pd side_to_MIDI;
#X obj 42 29 list trim;
#N canvas 0 54 1920 1001 top_to_MIDI 0;
#X obj 47 16 inlet;
#N canvas 2 54 1916 999 set_col 0;
#X obj 94 32 inlet;
#X obj 95 209 outlet, f 17;
#X obj 94 84 sel 0 1 2 3, f 101;
#X obj 94 140 int 0;
#X obj 217 144 int 127;
#X obj 365 144 int 52;
#X obj 509 147 int 3;
#X connect 0 0 2 0;
#X connect 2 0 3 0;
#X connect 2 1 4 0;
#X connect 2 2 5 0;
#X connect 2 3 6 0;
#X connect 3 0 1 0;
#X connect 4 0 1 0;
#X connect 5 0 1 0;
#X connect 6 0 1 0;
#X restore 178 101 pd set_col;
#X obj 48 50 unpack f f, f 23;
#X obj 46 180 pack f f, f 20;
#X obj 46 291 outlet;
#X obj 55 102 + 104;
#X msg 44 249 \$2 \$1;
#X connect 0 0 2 0;
#X connect 1 0 3 1;
#X connect 2 0 5 0;
#X connect 2 1 1 0;
#X connect 3 0 6 0;
#X connect 5 0 3 0;
#X connect 6 0 4 0;
#X restore 388 94 pd top_to_MIDI;
#X obj 400 160 outlet;
#X connect 0 0 5 0;
#X connect 2 0 3 0;
#X connect 2 1 4 0;
#X connect 2 2 6 0;
#X connect 3 0 1 0;
#X connect 4 0 1 0;
#X connect 5 0 2 0;
#X connect 6 0 7 0;
#X restore 394 121 pd LED_feedback;
#N canvas 0 54 1920 1001 grid_in 0;
#X obj 54 4 inlet;
#X obj 315 15 inlet;
#X obj 315 73 unpack f f, f 20;
#X msg 315 41 \$2 \$1;
#X obj 315 105 - 104;
#X obj 432 110 > 0;
#X obj 56 234 list trim, f 23;
#X obj 56 280 outlet;
#X obj 150 83 > 0;
#X obj 54 57 t f f, f 9;
#X obj 54 84 mod 16;
#X obj 55 111 pack f f f, f 16;
#X obj 175 171 list prepend grid;
#X obj 104 85 div 16;
#X obj 54 33 unpack, f 16;
#X obj 55 141 route 8, f 21;
#X obj 55 169 list prepend side;
#X obj 315 133 pack f f;
#X obj 315 170 list prepend top;
#X connect 0 0 14 0;
#X connect 1 0 3 0;
#X connect 2 0 4 0;
#X connect 2 1 5 0;
#X connect 3 0 2 0;
#X connect 4 0 17 0;
#X connect 5 0 17 1;
#X connect 6 0 7 0;
#X connect 8 0 11 2;
#X connect 9 0 10 0;
#X connect 9 1 13 0;
#X connect 10 0 11 0;
#X connect 11 0 15 0;
#X connect 12 0 6 0;
#X connect 13 0 11 1;
#X connect 14 0 9 0;
#X connect 14 1 8 0;
#X connect 15 0 16 0;
#X connect 15 1 12 0;
#X connect 16 0 6 0;
#X connect 17 0 18 0;
#X connect 18 0 6 0;
#X restore 50 222 pd grid_in;
#X obj 50 250 outlet;
#X text 57 42 MIDI Note Input;
#X text 397 243 Note Output;
#X text 203 41 MIDI Ctrl Input;
#X text 498 244 Ctrl Output;
#X text 103 253 Converted Output;
#X text 440 48 Converted Input;
#X obj 50 120 notein, f 10;
#X obj 394 205 noteout, f 12;
#X obj 503 206 ctlout, f 11;
#X obj 125 86 int \$1;
#X obj 125 111 - 1;
#X obj 125 140 * 16;
#X obj 50 144 pack f f f;
#X msg 50 165 \$3 \$1 \$2;
#X obj 50 192 route 1;
#X obj 125 163 + 1;
#X obj 124 64 loadbang;
#X obj 244 88 int \$1;
#X obj 244 113 - 1;
#X obj 244 142 * 16;
#X obj 169 146 pack f f f;
#X msg 170 167 \$3 \$1 \$2;
#X obj 170 194 route 1;
#X obj 244 165 + 1;
#X obj 243 66 loadbang;
#X obj 169 122 ctlin, f 10;
#X obj 617 69 - 1;
#X obj 617 98 * 16;
#X obj 617 121 + 1;
#X obj 616 22 loadbang;
#X obj 616 144 t f f;
#X obj 394 170 pack f f f, f 14;
#X obj 394 144 unpack f f;
#X obj 503 171 pack f f f, f 14;
#X obj 501 146 unpack f f;
#X obj 617 44 int \$2;
#X connect 0 0 1 0;
#X connect 1 0 36 0;
#X connect 1 1 38 0;
#X connect 2 0 3 0;
#X connect 10 0 16 0;
#X connect 10 1 16 1;
#X connect 10 2 16 2;
#X connect 13 0 14 0;
#X connect 14 0 15 0;
#X connect 15 0 19 0;
#X connect 16 0 17 0;
#X connect 17 0 18 0;
#X connect 18 0 2 0;
#X connect 19 0 18 1;
#X connect 20 0 13 0;
#X connect 21 0 22 0;
#X connect 22 0 23 0;
#X connect 23 0 27 0;
#X connect 24 0 25 0;
#X connect 25 0 26 0;
#X connect 26 0 2 1;
#X connect 27 0 26 1;
#X connect 28 0 21 0;
#X connect 29 0 24 0;
#X connect 29 1 24 1;
#X connect 29 2 24 2;
#X connect 30 0 31 0;
#X connect 31 0 32 0;
#X connect 32 0 34 0;
#X connect 33 0 39 0;
#X connect 34 0 35 2;
#X connect 34 1 37 2;
#X connect 35 0 11 0;
#X connect 36 0 35 0;
#X connect 36 1 35 1;
#X connect 37 0 12 0;
#X connect 38 0 37 0;
#X connect 38 1 37 1;
#X connect 39 0 30 0;
