#N canvas 0 54 1920 790 10;
#X obj 131 200 counter;
#X obj 16 333 list prepend read -resize;
#X obj 16 173 t a b, f 18;
#X obj 16 303 list append;
#X obj 16 383 soundfiler;
#X obj 16 358 list trim;
#X obj 131 244 t f f f, f 49;
#X obj 289 281 * 40;
#X obj 16 55 t b b b, f 61;
#X obj 16 35 inlet;
#X obj 131 280 makefilename %d-sample;
#N canvas 0 54 1920 790 \$0-buffers 0;
#X restore 237 23 pd \$0-buffers;
#X obj 410 86 symbol \$0-buffers;
#X obj 410 113 makefilename pd-%s;
#X msg 527 164 \; \$1 clear;
#X obj 289 311 pack f f s, f 49;
#X msg 289 336 \; \$3 obj 0 \$1 array define \$2-sample 1000;
#X obj 411 134 t s s, f 18;
#X msg 197 121 0;
#X msg 463 31 bang;
#N canvas 0 54 1920 790 sample_list 0;
#X msg 141 67 bang;
#X obj 141 215 cts_counter 0;
#X obj 141 178 t b f, f 13;
#X obj 141 103 t b b b, f 84;
#X msg 642 153 -1;
#X obj 391 150 symbol \$1;
#X obj 642 185 text delete \$0_samplelist;
#X obj 391 208 text define \$0_samplelist;
#X obj 141 37 inlet;
#X obj 141 373 outlet;
#X msg 391 183 read \$1/sound_list.txt;
#X obj 141 149 text size \$0_samplelist;
#X obj 141 249 text get \$0_samplelist;
#X obj 141 295 makefilename \$1/%s;
#X connect 0 0 3 0;
#X connect 1 0 12 0;
#X connect 2 0 1 0;
#X connect 2 1 1 1;
#X connect 3 0 11 0;
#X connect 3 1 5 0;
#X connect 3 2 4 0;
#X connect 4 0 6 0;
#X connect 5 0 10 0;
#X connect 8 0 0 0;
#X connect 10 0 7 0;
#X connect 11 0 2 0;
#X connect 12 0 13 0;
#X connect 13 0 9 0;
#X restore 17 104 pd sample_list;
#X obj 34 241 print LOADED;
#X connect 0 0 6 0;
#X connect 1 0 5 0;
#X connect 2 0 3 0;
#X connect 2 0 21 0;
#X connect 2 1 0 0;
#X connect 3 0 1 0;
#X connect 5 0 4 0;
#X connect 6 0 10 0;
#X connect 6 1 7 0;
#X connect 6 2 15 1;
#X connect 7 0 15 0;
#X connect 8 0 20 0;
#X connect 8 1 18 0;
#X connect 8 2 12 0;
#X connect 9 0 8 0;
#X connect 10 0 3 1;
#X connect 12 0 13 0;
#X connect 13 0 17 0;
#X connect 15 0 16 0;
#X connect 17 0 15 2;
#X connect 17 1 14 0;
#X connect 18 0 0 2;
#X connect 19 0 12 0;
#X connect 20 0 2 0;
