#N canvas 2 54 1916 999 10;
#X obj 68 9 inlet;
#X obj 131 127 sel 0 1, f 15;
#X obj 122 292 switch 3 1, f 13;
#X obj 131 218 t f f;
#X obj 179 218 t f f;
#X obj 122 415 scale 0 1 0 1 1;
#X obj 121 446 clip 0 1;
#X obj 131 97 list split 1, f 43;
#X obj 122 469 t f f, f 24;
#X obj 121 522 outlet;
#X obj 277 524 outlet;
#N canvas 2 54 1916 999 limiter 0;
#X obj 58 66 t f f, f 17;
#X obj 284 94 inlet;
#X obj 59 111 <= 0;
#X obj 167 109 >= 1;
#X obj 167 151 * 2;
#X obj 167 189 t b f;
#X obj 59 228 +, f 22;
#X obj 284 268 outlet;
#X obj 285 218 change;
#X obj 285 190 expr $f1 + $f2 + $f3, f 30;
#X obj 286 137 expr if ($f1 <= 0 \, 3 \, 0) \; if ($f1 >= 1 \, 2 \,
0) \; if ($f1 > 0 && $f1 < 1 \, 1 \, 0) \;;
#X connect 0 0 2 0;
#X connect 0 1 3 0;
#X connect 1 0 10 0;
#X connect 2 0 6 0;
#X connect 3 0 4 0;
#X connect 4 0 5 0;
#X connect 5 0 6 0;
#X connect 5 1 6 1;
#X connect 8 0 7 0;
#X connect 9 0 8 0;
#X connect 10 0 9 0;
#X connect 10 1 9 1;
#X connect 10 2 9 2;
#X restore 316 322 pd limiter;
#X msg 131 160 -0.01;
#X msg 179 160 0.01;
#X obj 121 493 list prepend, f 22;
#X obj 122 322 +;
#X obj 136 385 f;
#X obj 122 355 t f f f;
#X obj 131 71 list-rev;
#X obj 258 129 list-rev;
#X obj 69 30 route set;
#X obj 57 292 t f;
#X connect 0 0 20 0;
#X connect 1 0 12 0;
#X connect 1 1 13 0;
#X connect 2 0 15 0;
#X connect 3 0 2 1;
#X connect 3 1 2 2;
#X connect 4 0 2 1;
#X connect 4 1 2 3;
#X connect 5 0 6 0;
#X connect 6 0 8 0;
#X connect 7 0 1 0;
#X connect 7 1 19 0;
#X connect 8 0 14 0;
#X connect 8 1 10 0;
#X connect 11 0 2 0;
#X connect 12 0 3 0;
#X connect 13 0 4 0;
#X connect 14 0 9 0;
#X connect 15 0 17 0;
#X connect 16 0 15 1;
#X connect 17 0 5 0;
#X connect 17 1 16 0;
#X connect 17 2 11 0;
#X connect 18 0 7 0;
#X connect 19 0 14 1;
#X connect 20 0 21 0;
#X connect 20 1 18 0;
#X connect 21 0 17 0;
