#N canvas 0 54 1920 1001 10;
#X obj 548 54 inlet;
#X text 83 53 MIDI Note Input;
#X text 266 54 MIDI Ctrl Input;
#X obj 76 130 notein, f 10;
#X obj 151 97 int \$1;
#X obj 151 122 - 1;
#X obj 151 151 * 16;
#X obj 76 155 pack f f f;
#X msg 77 176 \$3 \$1 \$2;
#X obj 77 203 route 1;
#X obj 151 174 + 1;
#X obj 150 75 loadbang;
#X obj 307 101 int \$1;
#X obj 307 126 - 1;
#X obj 307 155 * 16;
#X obj 232 159 pack f f f;
#X msg 233 180 \$3 \$1 \$2;
#X obj 233 207 route 1;
#X obj 307 178 + 1;
#X obj 306 79 loadbang;
#X obj 232 135 ctlin, f 10;
#N canvas 2 54 1916 999 input_processing 0;
#X obj 67 241 route 9 10 11 12 25 26 27 28, f 142;
#X obj 70 74 inlet;
#X obj 70 102 unpack f f;
#X obj 114 136 > 0;
#X obj 68 190 pack f f;
#X obj 182 266 prepend 1;
#X obj 297 266 prepend 2;
#X obj 412 267 prepend 3;
#X obj 527 264 prepend 4;
#X obj 67 269 prepend 0;
#X obj 642 267 prepend 5;
#X obj 758 266 prepend 6;
#X obj 872 264 prepend 7;
#X obj 68 320 t l;
#X obj 68 346 outlet;
#X obj 1010 74 inlet;
#X obj 1006 259 > 0;
#X msg 1009 125 \$2 \$1;
#X obj 1007 223 route 114 115 116 117, f 64;
#X obj 1388 260 route 21 22 23 24 25 26 27 28;
#X obj 1571 300 route 41 42 43 44 45 46 47 48;
#X obj 1112 283 prepend 1;
#X obj 1214 283 prepend 2;
#X obj 1315 285 prepend 3;
#X obj 1003 288 prepend 0;
#X obj 1111 262 > 0;
#X obj 1214 262 > 0;
#X obj 1316 257 > 0;
#X obj 1010 368 t l;
#X obj 1011 415 outlet, f 24;
#X connect 0 0 9 0;
#X connect 0 1 5 0;
#X connect 0 2 6 0;
#X connect 0 3 7 0;
#X connect 0 4 8 0;
#X connect 0 5 10 0;
#X connect 0 6 11 0;
#X connect 0 7 12 0;
#X connect 1 0 2 0;
#X connect 2 0 4 0;
#X connect 2 1 3 0;
#X connect 3 0 4 1;
#X connect 4 0 0 0;
#X connect 5 0 13 0;
#X connect 6 0 13 0;
#X connect 7 0 13 0;
#X connect 8 0 13 0;
#X connect 9 0 13 0;
#X connect 10 0 13 0;
#X connect 11 0 13 0;
#X connect 12 0 13 0;
#X connect 13 0 14 0;
#X connect 15 0 17 0;
#X connect 16 0 24 0;
#X connect 17 0 18 0;
#X connect 18 0 16 0;
#X connect 18 1 25 0;
#X connect 18 2 26 0;
#X connect 18 3 27 0;
#X connect 18 4 19 0;
#X connect 19 8 20 0;
#X connect 21 0 28 0;
#X connect 22 0 28 0;
#X connect 23 0 28 0;
#X connect 24 0 28 0;
#X connect 25 0 21 0;
#X connect 26 0 22 0;
#X connect 27 0 23 0;
#X connect 28 0 29 0;
#X restore 78 258 pd input_processing;
#X obj 78 298 list prepend c;
#X obj 77 329 list trim;
#X obj 231 329 list trim;
#X obj 232 298 list prepend quad;
#X obj 77 370 outlet;
#N canvas 2 54 1916 999 LED_colour 0;
#X obj 78 42 inlet;
#X obj 79 173 route 0 1 2 3, f 42;
#X msg 79 207 \$1 0;
#X msg 137 207 \$1 127;
#X msg 207 210 \$1 52;
#X msg 277 211 \$1 3;
#X obj 81 316 outlet;
#X msg 79 140 \$2 \$1;
#X obj 79 87 route c quad, f 100;
#X obj 402 175 route 0 1 2 3, f 42;
#X msg 402 209 \$1 0;
#X msg 460 209 \$1 127;
#X msg 402 143 \$2 \$1;
#X msg 530 212 \$1 126;
#X msg 600 214 \$1 125;
#X obj 401 324 outlet;
#X connect 0 0 8 0;
#X connect 1 0 2 0;
#X connect 1 1 3 0;
#X connect 1 2 4 0;
#X connect 1 3 5 0;
#X connect 2 0 6 0;
#X connect 3 0 6 0;
#X connect 4 0 6 0;
#X connect 5 0 6 0;
#X connect 7 0 1 0;
#X connect 8 0 7 0;
#X connect 8 1 12 0;
#X connect 9 0 10 0;
#X connect 9 1 11 0;
#X connect 9 2 13 0;
#X connect 9 3 14 0;
#X connect 10 0 15 0;
#X connect 11 0 15 0;
#X connect 12 0 9 0;
#X connect 13 0 15 0;
#X connect 14 0 15 0;
#X restore 548 83 pd LED_colour;
#N canvas 2 54 1916 999 note_map 0;
#X obj 69 46 inlet;
#X obj 69 68 route 0 1 2 3 4 5 6 7, f 121;
#X msg 70 99 9 \$1;
#X msg 163 100 10 \$1;
#X msg 256 98 11 \$1;
#X msg 361 100 12 \$1;
#X msg 456 102 25 \$1;
#X msg 551 100 26 \$1;
#X msg 656 101 27 \$1;
#X msg 749 97 28 \$1;
#X obj 72 188 outlet;
#X connect 0 0 1 0;
#X connect 1 0 2 0;
#X connect 1 1 3 0;
#X connect 1 2 4 0;
#X connect 1 3 5 0;
#X connect 1 4 6 0;
#X connect 1 5 7 0;
#X connect 1 6 8 0;
#X connect 1 7 9 0;
#X connect 2 0 10 0;
#X connect 3 0 10 0;
#X connect 4 0 10 0;
#X connect 5 0 10 0;
#X connect 6 0 10 0;
#X connect 7 0 10 0;
#X connect 8 0 10 0;
#X connect 9 0 10 0;
#X restore 548 120 pd note_map;
#N canvas 2 54 1916 999 cc_map 0;
#X obj 58 33 inlet;
#X obj 59 59 route 0 1 2 3, f 69;
#X msg 58 95 \$1 114;
#X msg 167 96 \$1 115;
#X msg 276 93 \$1 116;
#X msg 392 92 \$1 117;
#X obj 56 149 outlet;
#X connect 0 0 1 0;
#X connect 1 0 2 0;
#X connect 1 1 3 0;
#X connect 1 2 4 0;
#X connect 1 3 5 0;
#X connect 2 0 6 0;
#X connect 3 0 6 0;
#X connect 4 0 6 0;
#X connect 5 0 6 0;
#X restore 631 120 pd cc_map;
#X obj 737 95 - 1;
#X obj 737 124 * 16;
#X obj 737 147 + 1;
#X obj 736 48 loadbang;
#X obj 737 70 int \$2;
#X obj 737 168 t f f;
#X obj 548 158 unpack f f;
#X obj 632 162 unpack f f;
#X obj 548 211 pack f f f;
#X obj 632 212 pack f f f;
#X obj 548 243 noteout;
#X obj 632 243 ctlout;
#X connect 0 0 27 0;
#X connect 3 0 7 0;
#X connect 3 1 7 1;
#X connect 3 2 7 2;
#X connect 4 0 5 0;
#X connect 5 0 6 0;
#X connect 6 0 10 0;
#X connect 7 0 8 0;
#X connect 8 0 9 0;
#X connect 9 0 21 0;
#X connect 10 0 9 1;
#X connect 11 0 4 0;
#X connect 12 0 13 0;
#X connect 13 0 14 0;
#X connect 14 0 18 0;
#X connect 15 0 16 0;
#X connect 16 0 17 0;
#X connect 17 0 21 1;
#X connect 18 0 17 1;
#X connect 19 0 12 0;
#X connect 20 0 15 0;
#X connect 20 1 15 1;
#X connect 20 2 15 2;
#X connect 21 0 22 0;
#X connect 21 1 25 0;
#X connect 22 0 23 0;
#X connect 23 0 26 0;
#X connect 24 0 26 0;
#X connect 25 0 24 0;
#X connect 27 0 28 0;
#X connect 27 1 29 0;
#X connect 28 0 36 0;
#X connect 29 0 37 0;
#X connect 30 0 31 0;
#X connect 31 0 32 0;
#X connect 32 0 35 0;
#X connect 33 0 34 0;
#X connect 34 0 30 0;
#X connect 35 0 38 2;
#X connect 35 1 39 2;
#X connect 36 0 38 0;
#X connect 36 1 38 1;
#X connect 37 0 39 0;
#X connect 37 1 39 1;
#X connect 38 0 40 0;
#X connect 39 0 41 0;
